<svg width="44" height="44" viewBox="0 0 44 44" fill="none" xmlns="http://www.w3.org/2000/svg">
<path d="M21.9884 22.5449C24.6525 22.5449 26.8009 20.2246 26.8009 17.3457C26.8009 14.5312 24.6417 12.2539 21.9884 12.2539C19.3458 12.2539 17.1759 14.542 17.1867 17.3564C17.1974 20.2246 19.3243 22.5449 21.9884 22.5449ZM21.9884 20.2676C20.6456 20.2676 19.5284 19.0537 19.5177 17.3457C19.507 15.7129 20.6564 14.5205 21.9884 14.5205C23.3419 14.5205 24.4591 15.7021 24.4591 17.3457C24.4591 19.043 23.3419 20.2676 21.9884 20.2676ZM15.382 32.6104H28.5949C30.5607 32.6104 31.5382 31.9443 31.5382 30.5479C31.5382 27.3896 27.6388 23.6621 21.9884 23.6621C16.3273 23.6621 12.4386 27.3896 12.4386 30.5479C12.4386 31.9443 13.4161 32.6104 15.382 32.6104ZM15.296 30.3438C15.0919 30.3438 15.0275 30.2578 15.0275 30.0967C15.0275 28.6572 17.5626 25.9287 21.9884 25.9287C26.4142 25.9287 28.9493 28.6572 28.9493 30.0967C28.9493 30.2578 28.8849 30.3438 28.67 30.3438H15.296Z" fill="white"/>
</svg>
