<svg width="24" height="24" viewBox="0 0 24 24" fill="none" xmlns="http://www.w3.org/2000/svg">
<path d="M10.915 23.7275H13.085C13.9121 23.7275 14.5459 23.2227 14.7393 22.4277L15.2012 20.4189L15.5449 20.3008L17.2959 21.375C17.9941 21.8154 18.7998 21.708 19.3906 21.1172L20.8945 19.624C21.4854 19.0332 21.5928 18.2168 21.1523 17.5293L20.0566 15.7891L20.1855 15.4668L22.1943 14.9941C22.9785 14.8008 23.4941 14.1562 23.4941 13.3398V11.2129C23.4941 10.3965 22.9893 9.75195 22.1943 9.55859L20.207 9.0752L20.0674 8.73145L21.1631 6.99121C21.6035 6.30371 21.4961 5.49805 20.9053 4.89648L19.4014 3.39258C18.8213 2.8125 18.0156 2.70508 17.3174 3.13477L15.5664 4.20898L15.2012 4.06934L14.7393 2.06055C14.5459 1.26562 13.9121 0.760742 13.085 0.760742H10.915C10.0879 0.760742 9.4541 1.26562 9.26074 2.06055L8.78809 4.06934L8.42285 4.20898L6.68262 3.13477C5.98438 2.70508 5.16797 2.8125 4.58789 3.39258L3.09473 4.89648C2.50391 5.49805 2.38574 6.30371 2.83691 6.99121L3.92188 8.73145L3.79297 9.0752L1.80566 9.55859C1.01074 9.75195 0.505859 10.3965 0.505859 11.2129V13.3398C0.505859 14.1562 1.02148 14.8008 1.80566 14.9941L3.81445 15.4668L3.93262 15.7891L2.84766 17.5293C2.39648 18.2168 2.51465 19.0332 3.10547 19.624L4.59863 21.1172C5.18945 21.708 6.00586 21.8154 6.7041 21.375L8.44434 20.3008L8.78809 20.4189L9.26074 22.4277C9.4541 23.2227 10.0879 23.7275 10.915 23.7275ZM11.0869 22.0518C10.9043 22.0518 10.8076 21.9766 10.7754 21.8047L10.1309 19.1406C9.47559 18.9795 8.86328 18.7217 8.40137 18.4316L6.05957 19.8711C5.93066 19.9678 5.79102 19.9463 5.66211 19.8174L4.39453 18.5498C4.27637 18.4316 4.26562 18.3027 4.35156 18.1523L5.79102 15.832C5.54395 15.3809 5.26465 14.7686 5.09277 14.1133L2.42871 13.4795C2.25684 13.4473 2.18164 13.3506 2.18164 13.168V11.374C2.18164 11.1807 2.24609 11.0947 2.42871 11.0625L5.08203 10.418C5.25391 9.71973 5.57617 9.08594 5.76953 8.68848L4.34082 6.36816C4.24414 6.20703 4.25488 6.07812 4.37305 5.94922L5.65137 4.70312C5.78027 4.57422 5.89844 4.55273 6.05957 4.64941L8.37988 6.05664C8.8418 5.79883 9.49707 5.53027 10.1416 5.34766L10.7754 2.68359C10.8076 2.51172 10.9043 2.43652 11.0869 2.43652H12.9131C13.0957 2.43652 13.1924 2.51172 13.2139 2.68359L13.8691 5.36914C14.5352 5.54102 15.1152 5.80957 15.5986 6.06738L17.9297 4.64941C18.1016 4.55273 18.209 4.57422 18.3486 4.70312L19.6162 5.94922C19.7451 6.07812 19.7451 6.20703 19.6484 6.36816L18.2197 8.68848C18.4238 9.08594 18.7354 9.71973 18.9072 10.418L21.5713 11.0625C21.7432 11.0947 21.8184 11.1807 21.8184 11.374V13.168C21.8184 13.3506 21.7324 13.4473 21.5713 13.4795L18.8965 14.1133C18.7246 14.7686 18.4561 15.3809 18.1982 15.832L19.6377 18.1523C19.7236 18.3027 19.7236 18.4316 19.5947 18.5498L18.3379 19.8174C18.1982 19.9463 18.0693 19.9678 17.9297 19.8711L15.5879 18.4316C15.126 18.7217 14.5244 18.9795 13.8691 19.1406L13.2139 21.8047C13.1924 21.9766 13.0957 22.0518 12.9131 22.0518H11.0869ZM12 16.3477C14.2451 16.3477 16.0928 14.5 16.0928 12.2441C16.0928 10.0098 14.2451 8.16211 12 8.16211C9.75488 8.16211 7.89648 10.0098 7.89648 12.2441C7.89648 14.4893 9.74414 16.3477 12 16.3477ZM12 14.6826C10.668 14.6826 9.57227 13.5869 9.57227 12.2441C9.57227 10.9229 10.668 9.82715 12 9.82715C13.3105 9.82715 14.4062 10.9229 14.4062 12.2441C14.4062 13.5762 13.3105 14.6826 12 14.6826Z" fill="white"/>
</svg>
